<?xml version="1.0" encoding="UTF-8" standalone="no"?>
<svg
   version="1.1"
   width="283"
   height="201"
   style="clip-rule:evenodd;fill-rule:evenodd;image-rendering:optimizeQuality;shape-rendering:geometricPrecision;text-rendering:geometricPrecision"
   id="svg25"
   sodipodi:docname="deer.svg"
   inkscape:export-filename="..\deerrrrrrrrrrrrrrrrrrrrrrrrrr.png"
   inkscape:export-xdpi="96"
   inkscape:export-ydpi="96"
   xmlns:inkscape="http://www.inkscape.org/namespaces/inkscape"
   xmlns:sodipodi="http://sodipodi.sourceforge.net/DTD/sodipodi-0.dtd"
   xmlns="http://www.w3.org/2000/svg"
   xmlns:svg="http://www.w3.org/2000/svg">
  <defs
     id="defs25" />
  <sodipodi:namedview
     id="namedview25"
     pagecolor="#ffffff"
     bordercolor="#000000"
     borderopacity="0.25"
     inkscape:showpageshadow="2"
     inkscape:pageopacity="0.0"
     inkscape:pagecheckerboard="0"
     inkscape:deskcolor="#d1d1d1"
     inkscape:zoom="3.1492537"
     inkscape:cx="141.62085"
     inkscape:cy="151.30569"
     inkscape:window-width="1600"
     inkscape:window-height="829"
     inkscape:window-x="-8"
     inkscape:window-y="-8"
     inkscape:window-maximized="1"
     inkscape:current-layer="svg25" />
  <g
     id="g1">
    <path
       style="opacity:0.918"
       fill="#777777"
       d="m 3.5,-0.5 c 1,0 2,0 3,0 -1.13529,10.03537 -0.96862,20.0354 0.5,30 1.33333,3.3333 2.66667,6.6667 4,10 4.709,7.1472 7.709,6.4805 9,-2 1.0113,-0.8366 2.1779,-1.17 3.5,-1 0.0467,3.0682 0.5467,6.0682 1.5,9 1.8906,-15.5664 6.5573,-30.233 14,-44 1.0113,-0.836632 2.1779,-1.169966 3.5,-1 -3.3584,11.2706 -5.6917,22.7706 -7,34.5 0.5635,2.2514 1.8968,3.2514 4,3 2.4609,-4.4215 4.7942,-8.9215 7,-13.5 1.3333,-1.3333 2.6667,-1.3333 4,0 -5.9595,15.2642 -7.4595,30.9308 -4.5,47 12.6382,14.9852 27.9715,26.3185 46,34 3.0981,-0.705 5.4315,-2.372 7,-5 -0.3685,-8.65 -0.3685,-17.3167 0,-26 0.2492,-1.124 0.7492,-2.124 1.5,-3 0.333,0.1667 0.667,0.3333 1,0.5 1.227,12.6807 5.06,24.5141 11.5,35.5 3.396,3.565 6.896,6.898 10.5,10 3.394,5.433 2.061,9.1 -4,11 -3.35,-1.343 -6.683,-2.677 -10,-4 C 90.7927,115.148 71.7927,106.314 52.5,98 42.1684,92.6672 33.3351,85.5006 26,76.5 24.4091,73.6484 23.0758,70.6484 22,67.5 9.64177,58.4331 2.14177,46.4331 -0.5,31.5 c 0,-4.6667 0,-9.3333 0,-14 1.302288,-5.8884 2.63562,-11.88837 4,-18 z"
       id="path1" />
  </g>
  <g
     id="g2">
    <path
       style="opacity:0.92"
       fill="#777777"
       d="m 274.5,-0.5 c 1,0 2,0 3,0 9.979,27.5324 3.813,50.5324 -18.5,69 -5.753,12.087 -14.586,21.2537 -26.5,27.5 -20.8,9.567 -41.466,19.4 -62,29.5 -2.962,0.561 -5.795,1.561 -8.5,3 -5.448,-1.901 -6.948,-5.568 -4.5,-11 8.214,-5.718 14.047,-13.385 17.5,-23 2.221,-7.6792 4.054,-15.3458 5.5,-23 0.586,0.2093 1.086,0.5426 1.5,1 0.79,8.536 0.623,17.036 -0.5,25.5 2.963,7.644 7.963,9.311 15,5 14.272,-8.263 27.105,-18.4297 38.5,-30.5 2.435,-7.8092 3.102,-15.8092 2,-24 -1.622,-8.4066 -3.455,-16.7399 -5.5,-25 1.322,-0.17 2.489,0.1634 3.5,1 2.167,4.3333 4.333,8.6667 6.5,13 1.151,1.231 2.317,1.231 3.5,0 0.477,-12.4493 -1.689,-24.4493 -6.5,-36 1.333,-1.333333 2.667,-1.333333 4,0 7.976,13.9529 12.476,28.9529 13.5,45 0.897,-2.9899 1.731,-5.9899 2.5,-9 0.825,-0.8857 1.825,-1.219 3,-1 -0.725,3.8672 0.608,6.5339 4,8 3.474,-2.9319 5.974,-6.5986 7.5,-11 2.787,-11.2121 3.287,-22.5454 1.5,-34 z"
       id="path2" />
  </g>
  <g
     id="g3">
    <path
       style="opacity:0.973"
       fill="#a8a8a8"
       d="m 177.5,11.5 c 2.814,-0.0973 4.814,1.0693 6,3.5 -0.487,5.5442 -0.82,11.0442 -1,16.5 2.652,2.04 5.485,2.3733 8.5,1 0.945,0.4054 1.612,1.072 2,2 1.148,-6.6892 1.315,-13.3559 0.5,-20 2.461,-2.5298 5.461,-3.3632 9,-2.5 3.554,3.5541 7.054,7.0541 10.5,10.5 0.818,2.7272 0.652,5.3938 -0.5,8 -3.179,3.6778 -6.512,7.1778 -10,10.5 -3.371,0.7437 -6.537,0.2437 -9.5,-1.5 -4.667,0.6667 -9.333,1.3333 -14,2 -1.067,-0.6905 -2.234,-1.1905 -3.5,-1.5 -0.474,-5.8023 -0.808,-11.6356 -1,-17.5 0.39,-3.9439 1.39,-7.6106 3,-11 z m 24,11 c 4.539,2.0019 4.873,4.3352 1,7 -0.974,-2.2427 -1.308,-4.576 -1,-7 z"
       id="path3" />
  </g>
  <g
     id="g4">
    <path
       style="opacity:0.959"
       fill="#a8a8a8"
       d="m 101.5,11.5 c 1.67,0.2512 3.17,0.9178 4.5,2 -0.282,7.7568 -0.282,15.4235 0,23 3.443,-5.1558 6.61,-10.4891 9.5,-16 -1.778,-0.0693 -3.611,-0.4026 -5.5,-1 -1.595,-1.9248 -1.762,-3.9248 -0.5,-6 5,-1.3333 10,-1.3333 15,0 0.667,1.3333 1.333,2.6667 2,4 -3.226,5.1187 -5.893,10.4521 -8,16 3.6,-2.0345 5.933,-1.0345 7,3 -0.526,1.7303 -1.526,3.0637 -3,4 -4.223,-0.0602 -8.556,-0.2269 -13,-0.5 -1.638,-3.0571 -2.971,-3.0571 -4,0 -2.557,1.8298 -5.057,1.6631 -7.5,-0.5 0.4416,-8.916 0.6083,-17.916 0.5,-27 1.291,0.2373 2.291,-0.096 3,-1 z"
       id="path4" />
  </g>
  <g
     id="g5">
    <path
       style="opacity:0.943"
       fill="#a8a8a8"
       d="m 167.5,11.5 c 4.402,0.5335 6.069,3.0335 5,7.5 -0.39,6.3591 -0.39,12.6924 0,19 -2.778,4.2815 -5.778,4.4482 -9,0.5 0.971,-8.612 1.304,-17.2786 1,-26 1.291,0.2373 2.291,-0.096 3,-1 z"
       id="path5" />
  </g>
  <g
     id="g6">
    <path
       style="opacity:0.965"
       fill="#a8a8a8"
       d="m 90.5,12.5 c 2.8576,0.0954 5.1909,1.2621 7,3.5 -2.199,8.0299 -4.0323,16.1966 -5.5,24.5 -6.0785,1.9401 -9.0785,-0.3933 -9,-7 -0.0828,6.8196 -3.4161,9.153 -10,7 -1.6699,-8.3722 -3.8366,-16.5389 -6.5,-24.5 2.5172,-2.2508 5.5172,-3.0841 9,-2.5 -0.1076,3.747 0.3924,7.4137 1.5,11 0.4888,-3.4822 1.6555,-6.6488 3.5,-9.5 4.4266,-1.0329 6.7599,0.8004 7,5.5 0.5917,-2.9364 1.5917,-5.6031 3,-8 z"
       id="path6" />
  </g>
  <g
     id="g7">
    <path
       style="opacity:0.966"
       fill="#a8a8a8"
       d="m 156.5,12.5 c 2.858,0.0954 5.191,1.2621 7,3.5 -2.116,8.0668 -3.949,16.2335 -5.5,24.5 -6.079,1.9401 -9.079,-0.3933 -9,-7 -0.083,6.8196 -3.416,9.153 -10,7 -1.67,-8.3722 -3.837,-16.5389 -6.5,-24.5 2.517,-2.2508 5.517,-3.0841 9,-2.5 -0.108,3.747 0.392,7.4137 1.5,11 0.489,-3.4822 1.655,-6.6488 3.5,-9.5 4.427,-1.0329 6.76,0.8004 7,5.5 0.592,-2.9364 1.592,-5.6031 3,-8 z"
       id="path7" />
  </g>
  <g
     id="g8">
    <path
       style="opacity:0.633"
       fill="#777777"
       d="m 108.5,66.5 c -3.144,2.7889 -6.144,2.6223 -9,-0.5 0.626,-0.7504 1.126,-1.5838 1.5,-2.5 1.17,3.1698 3.003,3.6698 5.5,1.5 -2.772,-1.5312 -4.772,-3.6979 -6,-6.5 0.108,-0.9419 0.441,-1.7753 1,-2.5 1.973,-0.4955 3.973,-0.6621 6,-0.5 0.238,3.5993 -0.762,3.9327 -3,1 -1,0.3333 -1.667,1 -2,2 3.965,1.2861 5.965,3.9528 6,8 z"
       id="path8" />
  </g>
  <g
     id="g9">
    <path
       style="opacity:0.513"
       fill="#777777"
       d="m 109.5,55.5 c 1.175,-0.219 2.175,0.1143 3,1 -1.552,1.2979 -2.552,0.9646 -3,-1 z"
       id="path9" />
  </g>
  <g
     id="g10">
    <path
       style="opacity:0.586"
       fill="#777777"
       d="m 163.5,55.5 c 2,0 4,0 6,0 0.239,1.9672 -0.094,3.8005 -1,5.5 3.103,3.7471 2.269,6.2471 -2.5,7.5 -2.164,-0.1659 -3.331,-1.3326 -3.5,-3.5 0.245,-3.1808 0.578,-6.3475 1,-9.5 z m 2,1 c 1.832,0.6405 2.165,1.6405 1,3 -2.019,-0.6329 -2.353,-1.6329 -1,-3 z m 0,6 c 2.928,1.137 3.262,2.4704 1,4 -2.142,-0.9371 -2.476,-2.2704 -1,-4 z"
       id="path10" />
  </g>
  <g
     id="g11">
    <path
       style="opacity:0.632"
       fill="#777777"
       d="m 108.5,66.5 c 1.254,-1.8569 1.254,-3.8569 0,-6 0.825,-0.8857 1.825,-1.219 3,-1 -0.268,2.6194 0.065,5.1194 1,7.5 -1.566,0.765 -2.899,0.5983 -4,-0.5 z"
       id="path11" />
  </g>
  <g
     id="g12">
    <path
       style="opacity:0.653"
       fill="#777777"
       d="m 122.5,66.5 c -1.101,1.0983 -2.434,1.265 -4,0.5 0.906,-1.6995 1.239,-3.5328 1,-5.5 -1,0 -2,0 -3,0 -0.239,1.9672 0.094,3.8005 1,5.5 -1.333,0.6667 -2.667,0.6667 -4,0 1.28,-2.1317 1.28,-4.2984 0,-6.5 6.321,-2.6576 9.321,-0.6576 9,6 z"
       id="path12" />
  </g>
  <g
     id="g13">
    <path
       style="opacity:0.562"
       fill="#777777"
       d="m 122.5,66.5 c -0.667,-5.3333 1.667,-7.6667 7,-7 0.241,3.499 -0.592,3.8323 -2.5,1 -3.333,2 -3.333,4 0,6 0.893,-1.2112 1.726,-1.2112 2.5,0 -2.259,2.3953 -4.592,2.3953 -7,0 z"
       id="path13" />
  </g>
  <g
     id="g14">
    <path
       style="opacity:0.627"
       fill="#767676"
       d="m 131.5,59.5 c 3.104,-0.5289 5.437,0.4711 7,3 -1.923,0.8078 -3.923,1.3078 -6,1.5 0.833,0.8333 1.667,1.6667 2.5,2.5 0.893,-1.2112 1.726,-1.2112 2.5,0 -2.111,2.5443 -4.278,2.5443 -6.5,0 -0.556,-2.3848 -0.39,-4.7181 0.5,-7 z"
       id="path14" />
  </g>
  <g
     id="g15">
    <path
       style="opacity:0.532"
       fill="#787878"
       d="m 144.5,60.5 c 1.446,-1.1129 3.113,-1.2796 5,-0.5 -1.333,2.3333 -1.333,4.6667 0,7 -1.667,0.6667 -3.333,0.6667 -5,0 1.311,-2.2735 1.311,-4.4402 0,-6.5 z"
       id="path15" />
  </g>
  <g
     id="g16">
    <path
       style="opacity:0.566"
       fill="#777777"
       d="m 152.5,59.5 c 7.05,-0.5731 9.216,2.4269 6.5,9 -1.709,2.6156 -3.876,3.6156 -6.5,3 1,-0.8333 2,-1.6667 3,-2.5 -4.003,-2.1424 -5.003,-5.3091 -3,-9.5 z m 1,2 c 1.333,0 2.667,0 4,0 0.384,2.1648 -0.283,3.8315 -2,5 -1.717,-1.1685 -2.384,-2.8352 -2,-5 z"
       id="path16" />
  </g>
  <g
     id="g17">
    <path
       style="opacity:0.601"
       fill="#777777"
       d="m 177.5,58.5 c 1.548,0.3212 2.215,1.3212 2,3 -4.637,0.1077 -4.97,1.1077 -1,3 2.21,6.1182 0.21,8.4515 -6,7 1.229,-0.7811 2.562,-1.2811 4,-1.5 1.661,-3.1499 0.661,-4.6499 -3,-4.5 0,-2 0,-4 0,-6 1.599,0.2678 2.932,-0.0655 4,-1 z"
       id="path17" />
  </g>
  <g
     id="g18">
    <path
       style="opacity:0.946"
       fill="#828282"
       d="m 108.5,129.5 c -1.538,4.614 -2.872,9.281 -4,14 0.343,1.983 -0.324,3.317 -2,4 -6.3542,-1.338 -12.6875,-2.838 -19,-4.5 -3.7413,-1.738 -6.908,-4.238 -9.5,-7.5 -2.4851,-6.271 -4.8184,-12.605 -7,-19 -1.261,-5.58 0.9057,-7.413 6.5,-5.5 11.6935,6.179 23.3602,12.346 35,18.5 z"
       id="path18" />
  </g>
  <g
     id="g19">
    <path
       style="opacity:0.933"
       fill="#828282"
       d="m 176.5,148.5 c 0,-1.667 0,-3.333 0,-5 -2.112,-4.778 -3.445,-9.778 -4,-15 10.77,-5.219 21.437,-10.719 32,-16.5 4.192,-2.63 7.525,-1.963 10,2 -2.495,6.817 -4.995,13.65 -7.5,20.5 -2.956,4.731 -7.123,7.898 -12.5,9.5 -6.114,1.195 -12.114,2.695 -18,4.5 z"
       id="path19" />
  </g>
  <g
     id="g20">
    <path
       style="opacity:0.998"
       fill="#a9a9a9"
       d="m 123.5,117.5 c 11.333,2.667 22.667,2.667 34,0 -2.448,5.432 -0.948,9.099 4.5,11 2.705,-1.439 5.538,-2.439 8.5,-3 0.432,1.21 1.099,2.21 2,3 0.555,5.222 1.888,10.222 4,15 -7.143,-4.837 -13.31,-3.837 -18.5,3 -3,4.333 -6,8.667 -9,13 -0.499,4.321 -0.666,8.654 -0.5,13 -5.333,0 -10.667,0 -16,0 0.166,-4.014 -0.001,-8.014 -0.5,-12 -4.448,-6.782 -9.281,-13.282 -14.5,-19.5 -4.758,-1.034 -9.091,-0.201 -13,2.5 1.128,-4.719 2.462,-9.386 4,-14 0.129,-1.716 0.462,-3.383 1,-5 3.317,1.323 6.65,2.657 10,4 6.061,-1.9 7.394,-5.567 4,-11 z"
       id="path20" />
  </g>
  <g
     id="g21">
    <path
       style="opacity:0.953"
       fill="#dcdcdc"
       d="m 176.5,143.5 c 0,1.667 0,3.333 0,5 -6.151,14.974 -12.318,29.974 -18.5,45 -1.277,2.247 -2.777,4.247 -4.5,6 -0.543,-0.06 -0.876,-0.393 -1,-1 2.95,-8.43 2.284,-16.596 -2,-24.5 -6.667,-0.667 -13.333,-0.667 -20,0 -4.886,6.737 -6.22,14.237 -4,22.5 1.409,1.349 2.743,2.682 4,4 -1,0 -2,0 -3,0 -1.668,-1.84 -3.168,-3.84 -4.5,-6 -6.365,-15.95 -13.199,-31.617 -20.5,-47 1.676,-0.683 2.343,-2.017 2,-4 3.909,-2.701 8.242,-3.534 13,-2.5 5.219,6.218 10.052,12.718 14.5,19.5 0.499,3.986 0.666,7.986 0.5,12 5.333,0 10.667,0 16,0 -0.166,-4.346 0.001,-8.679 0.5,-13 3,-4.333 6,-8.667 9,-13 5.19,-6.837 11.357,-7.837 18.5,-3 z"
       id="path21" />
  </g>
  <g
     id="g22">
    <path
       style="opacity:1"
       fill="#343434"
       d="m 112.5,150.5 c 5.658,-0.821 7.325,1.346 5,6.5 -6.256,0.934 -7.923,-1.233 -5,-6.5 z"
       id="path22" />
  </g>
  <g
     id="g23">
    <path
       style="opacity:1"
       fill="#373737"
       d="m 162.5,150.5 c 5.613,-1.421 7.78,0.579 6.5,6 -5.916,1.916 -8.082,-0.084 -6.5,-6 z"
       id="path23" />
  </g>
  <g
     id="g24">
    <path
       style="opacity:0.986"
       fill="#eeeeee"
       d="m 153.5,199.5 c 0,0.333 0,0.667 0,1 -7.667,0 -15.333,0 -23,0 -1.257,-1.318 -2.591,-2.651 -4,-4 -2.22,-8.263 -0.886,-15.763 4,-22.5 6.667,-0.667 13.333,-0.667 20,0 4.284,7.904 4.95,16.07 2,24.5 0.124,0.607 0.457,0.94 1,1 z"
       id="path24" />
  </g>
  <g
     id="g25">
    <path
       style="opacity:1"
       fill="#343434"
       d="m 134.5,178.5 c 3.682,-0.165 7.348,0.001 11,0.5 3.895,5.314 3.895,10.647 0,16 -3.667,0.667 -7.333,0.667 -11,0 -3.901,-5.464 -3.901,-10.964 0,-16.5 z"
       id="path25" />
  </g>
</svg>
